<?xml version="1.0"?>
<svg width="512" height="512" xmlns="http://www.w3.org/2000/svg" xmlns:svg="http://www.w3.org/2000/svg">
 <!--! Font Awesome Pro 6.4.2 by @fontawesome - https://fontawesome.com License - https://fontawesome.com/license (Commercial License) Copyright 2023 Fonticons, Inc. -->
 <g class="layer">
  <title>Layer 1</title>
  <path d="m352,256c0,22.2 -1.2,43.6 -3.3,64l-185.4,0c-2.2,-20.4 -3.3,-41.8 -3.3,-64s1.2,-43.6 3.3,-64l185.4,0c2.2,20.4 3.3,41.8 3.3,64zm28.8,-64l123.1,0c5.3,20.5 8.1,41.9 8.1,64s-2.8,43.5 -8.1,64l-123.1,0c2.1,-20.6 3.2,-42 3.2,-64s-1.1,-43.4 -3.2,-64zm112.6,-32l-116.7,0c-10,-63.9 -29.8,-117.4 -55.3,-151.6c78.3,20.7 142,77.5 171.9,151.6l0.1,0zm-149.1,0l-176.6,0c6.1,-36.4 15.5,-68.6 27,-94.7c10.5,-23.6 22.2,-40.7 33.5,-51.5c11.2,-10.6 20.5,-13.8 27.8,-13.8s16.6,3.2 27.8,13.8c11.3,10.8 23,27.9 33.5,51.5c11.6,26 20.9,58.2 27,94.7zm-209,0l-116.7,0c30,-74.1 93.6,-130.9 172,-151.6c-25.5,34.2 -45.3,87.7 -55.3,151.6zm-127.2,32l123.1,0c-2.1,20.6 -3.2,42 -3.2,64s1.1,43.4 3.2,64l-123.1,0c-5.3,-20.5 -8.1,-41.9 -8.1,-64s2.8,-43.5 8.1,-64zm186.6,254.6c-11.6,-26 -20.9,-58.2 -27,-94.6l176.6,0c-6.1,36.4 -15.5,68.6 -27,94.6c-10.5,23.6 -22.2,40.7 -33.5,51.5c-11.2,10.7 -20.5,13.9 -27.8,13.9s-16.6,-3.2 -27.8,-13.8c-11.3,-10.8 -23,-27.9 -33.5,-51.5l0,-0.1zm-59.4,-94.6c10,63.9 29.8,117.4 55.3,151.6c-78.4,-20.7 -142,-77.5 -172,-151.6l116.7,0zm358.1,0c-30,74.1 -93.6,130.9 -171.9,151.6c25.5,-34.2 45.2,-87.7 55.3,-151.6l116.6,0z" fill="#ffffff" id="svg_1"/>
 </g>
</svg>