<?xml version="1.0"?>
<svg width="576" height="448" xmlns="http://www.w3.org/2000/svg" xmlns:svg="http://www.w3.org/2000/svg">
 <!--! Font Awesome Pro 6.4.2 by @fontawesome - https://fontawesome.com License - https://fontawesome.com/license (Commercial License) Copyright 2023 Fonticons, Inc. -->
 <g class="layer">
  <title>Layer 1</title>
  <path d="m0,48c0,-26.5 21.5,-48 48,-48l96,0c26.5,0 48,21.5 48,48l0,16l192,0l0,-16c0,-26.5 21.5,-48 48,-48l96,0c26.5,0 48,21.5 48,48l0,96c0,26.5 -21.5,48 -48,48l-96,0c-26.5,0 -48,-21.5 -48,-48l0,-16l-192,0l0,16c0,1.7 -0.1,3.4 -0.3,5l80.3,107l96,0c26.5,0 48,21.5 48,48l0,96c0,26.5 -21.5,48 -48,48l-96,0c-26.5,0 -48,-21.5 -48,-48l0,-96c0,-1.7 0.1,-3.4 0.3,-5l-80.3,-107l-96,0c-26.5,0 -48,-21.5 -48,-48l0,-96z" fill="#ffffff" id="svg_1"/>
 </g>
</svg>