<?xml version="1.0" standalone="no"?>
<!DOCTYPE svg PUBLIC "-//W3C//DTD SVG 20010904//EN"
 "http://www.w3.org/TR/2001/REC-SVG-20010904/DTD/svg10.dtd">
<svg version="1.0" xmlns="http://www.w3.org/2000/svg"
 width="1024.000000pt" height="1024.000000pt" viewBox="0 0 1024.000000 1024.000000"
 preserveAspectRatio="xMidYMid meet">
<metadata>
Created by potrace 1.14, written by Peter Selinger 2001-2017
</metadata>
<g transform="translate(0.000000,1024.000000) scale(0.100000,-0.100000)"
fill="#000000" stroke="none">
<path d="M2419 10235 c-3 -2 -21 -7 -40 -9 -19 -3 -50 -8 -69 -11 -19 -4 -39
-8 -45 -9 -5 -1 -16 -5 -22 -9 -7 -5 -13 -6 -13 -3 0 11 -176 -57 -255 -97
-127 -65 -231 -143 -337 -251 -59 -60 -171 -210 -191 -256 -7 -14 -14 -27 -18
-30 -18 -15 -93 -213 -113 -300 -31 -130 -31 -103 -31 -4145 0 -2200 4 -4013
8 -4030 5 -16 10 -43 13 -60 2 -16 7 -39 11 -50 4 -11 8 -26 9 -32 6 -35 48
-152 71 -197 94 -188 199 -325 334 -438 24 -21 50 -43 57 -49 28 -23 132 -89
141 -89 5 0 11 -3 13 -8 5 -11 181 -88 184 -80 0 2 7 -2 15 -8 8 -7 30 -15 49
-19 19 -4 39 -10 45 -13 5 -3 18 -7 30 -9 11 -1 58 -9 105 -17 74 -13 439 -15
2790 -13 2015 2 2715 6 2745 14 22 7 51 14 65 17 82 17 293 96 310 115 3 4 16
11 30 18 40 17 182 123 245 181 148 138 264 317 335 517 17 50 31 91 31 93 -1
1 -1 3 0 5 0 1 2 9 4 17 10 48 16 80 23 120 9 58 9 7968 0 8040 -4 30 -12 70
-17 89 -6 19 -9 37 -6 39 3 3 1 10 -5 16 -5 7 -12 27 -15 46 -3 18 -9 38 -13
44 -4 6 -7 13 -8 16 -5 26 -78 185 -86 188 -5 2 -8 8 -8 13 0 9 -66 113 -89
141 -6 7 -28 33 -49 57 -20 25 -62 68 -92 97 -47 45 -73 67 -145 121 -89 68
-309 171 -398 187 -6 1 -21 5 -32 9 -11 4 -34 9 -50 11 -17 3 -41 8 -55 13
-26 8 -5453 17 -5461 8z m2701 -2559 c33 1 63 4 67 7 3 4 11 3 17 0 6 -4 24
-8 40 -9 97 -8 242 -41 324 -75 12 -5 32 -13 45 -18 190 -74 405 -242 533
-416 16 -22 31 -42 34 -45 21 -21 124 -224 139 -275 7 -22 16 -49 21 -60 5
-11 12 -33 16 -50 4 -16 8 -32 9 -35 1 -3 5 -25 9 -50 5 -25 10 -54 13 -65 2
-11 6 -51 8 -90 2 -38 5 -71 5 -72 3 -4 3 -42 0 -45 -1 -2 -3 -32 -5 -68 -3
-60 -7 -93 -20 -160 -3 -14 -7 -36 -10 -49 -2 -14 -14 -54 -26 -90 -12 -36
-22 -68 -23 -71 0 -3 -19 -45 -43 -93 -89 -182 -202 -323 -362 -451 -105 -85
-176 -125 -346 -196 -23 -10 -68 -23 -75 -22 -3 0 -12 -4 -21 -9 -9 -4 -29
-11 -45 -14 -16 -2 -40 -7 -54 -10 -27 -6 -87 -15 -137 -20 -17 -1 -36 -6 -42
-9 -6 -4 -11 -4 -11 1 0 4 -27 8 -60 8 -33 0 -60 -4 -60 -8 0 -5 -5 -5 -11 -1
-6 3 -30 8 -52 10 -132 12 -282 51 -369 95 -10 5 -25 9 -33 9 -8 0 -15 5 -15
10 0 6 -3 9 -7 8 -34 -9 -287 167 -361 251 -13 14 -38 42 -56 61 -17 19 -45
53 -61 75 -17 22 -32 42 -35 45 -8 8 -39 62 -58 100 -9 19 -19 37 -22 40 -10
9 -64 138 -75 180 -1 3 -4 12 -8 20 -3 8 -9 29 -13 45 -4 17 -8 32 -9 35 -1 3
-5 25 -9 50 -5 25 -10 54 -13 65 -2 11 -6 52 -8 90 -2 39 -5 71 -5 73 -3 3 -3
41 0 45 1 1 3 31 5 67 3 60 7 93 20 160 3 14 7 36 10 49 2 14 14 54 26 90 12
36 21 66 20 66 -4 0 111 229 118 235 4 3 23 28 43 57 116 163 271 297 459 394
34 18 68 32 75 32 8 0 14 4 14 8 0 5 22 14 60 24 3 0 28 9 56 18 28 10 62 20
75 22 13 3 35 8 49 10 29 6 90 15 138 20 18 1 36 6 40 10 4 3 8 3 9 -2 2 -4
30 -7 63 -7z m-789 -3196 c16 5 31 5 34 1 2 -5 23 -5 45 -1 22 4 40 4 40 -1 0
-4 12 -4 28 0 15 5 36 5 47 1 11 -4 24 -5 29 -2 13 7 136 8 136 0 0 -4 12 -3
28 1 15 5 36 5 47 1 11 -4 24 -5 29 -2 13 7 136 8 136 0 0 -4 12 -3 28 1 15 5
37 5 48 1 11 -5 27 -5 34 0 7 4 24 5 39 1 27 -8 80 -6 88 3 3 3 15 1 27 -4 13
-4 29 -5 36 0 7 4 25 4 40 0 15 -4 33 -4 40 0 7 4 26 4 41 0 16 -5 31 -5 34 0
3 4 20 5 38 1 18 -5 41 -5 52 -1 11 4 29 4 41 0 11 -5 27 -5 34 0 7 4 25 4 40
0 15 -4 33 -4 40 0 7 4 25 4 41 0 15 -5 30 -6 33 -3 7 8 123 6 135 -1 5 -4 12
-2 15 3 4 5 18 6 34 2 15 -4 39 -4 54 0 14 4 29 5 31 2 3 -2 49 -6 104 -9 54
-2 141 -13 193 -24 52 -12 100 -22 107 -24 7 -1 16 -5 19 -9 4 -4 17 -7 29 -7
11 0 25 -4 31 -8 5 -5 32 -17 59 -27 81 -30 262 -134 305 -175 9 -8 31 -26 50
-40 74 -55 201 -198 261 -293 18 -29 36 -54 39 -57 29 -26 143 -311 156 -390
2 -14 7 -36 10 -50 9 -40 13 -62 18 -119 3 -29 7 -56 10 -58 3 -3 1 -16 -4
-29 -5 -13 -6 -25 -2 -28 12 -7 1 -107 -17 -176 -59 -213 -262 -383 -472 -395
-26 -1 -51 -5 -56 -8 -5 -3 -15 -2 -23 3 -8 5 -21 5 -30 0 -9 -5 -22 -5 -29 0
-8 4 -27 4 -42 0 -16 -5 -31 -5 -34 0 -3 5 -16 5 -30 0 -14 -5 -27 -5 -30 0
-3 5 -18 5 -35 0 -16 -5 -32 -5 -35 0 -3 5 -19 5 -35 0 -17 -5 -30 -5 -30 0 0
5 -13 5 -30 0 -17 -5 -30 -5 -30 0 0 5 -13 5 -30 0 -17 -5 -32 -5 -35 0 -3 5
-16 5 -30 0 -14 -5 -27 -5 -30 0 -3 5 -18 5 -35 0 -16 -5 -32 -5 -35 0 -3 5
-19 5 -35 0 -17 -5 -30 -5 -30 0 0 5 -13 5 -30 0 -17 -5 -30 -5 -30 0 0 5 -13
5 -30 0 -17 -5 -32 -5 -35 0 -3 5 -16 5 -30 0 -14 -5 -27 -5 -30 0 -3 5 -18 5
-35 0 -16 -5 -32 -5 -35 0 -3 5 -19 5 -35 0 -17 -5 -30 -5 -30 0 0 5 -13 5
-30 0 -17 -5 -30 -5 -30 0 0 5 -13 5 -30 0 -17 -5 -32 -5 -35 0 -3 5 -16 5
-30 0 -14 -5 -27 -5 -30 0 -3 5 -18 5 -35 0 -16 -5 -32 -5 -35 0 -3 5 -19 5
-35 0 -17 -5 -30 -5 -30 0 0 5 -13 5 -30 0 -17 -5 -30 -5 -30 0 0 5 -13 5 -30
0 -17 -5 -32 -5 -35 0 -3 5 -16 5 -30 0 -14 -5 -27 -5 -30 0 -3 5 -18 5 -35 0
-16 -5 -32 -5 -35 0 -3 5 -19 5 -35 0 -19 -5 -30 -5 -30 1 0 6 -5 7 -10 4 -14
-9 -108 -10 -116 -2 -4 3 -14 2 -23 -3 -10 -5 -23 -5 -31 0 -8 5 -21 5 -30 0
-9 -5 -22 -5 -30 0 -8 5 -21 5 -30 0 -9 -5 -22 -5 -30 0 -8 5 -21 5 -30 0 -9
-5 -22 -5 -30 0 -8 5 -21 5 -30 0 -9 -5 -22 -5 -30 0 -8 5 -21 5 -30 0 -9 -5
-22 -5 -30 0 -8 5 -21 5 -30 0 -9 -5 -22 -5 -30 0 -8 5 -21 5 -30 0 -9 -5 -22
-5 -30 0 -8 5 -21 5 -30 0 -9 -5 -22 -5 -30 0 -8 5 -21 5 -30 0 -9 -5 -22 -5
-30 0 -8 5 -21 5 -30 0 -9 -5 -22 -5 -30 0 -8 5 -21 5 -30 0 -9 -5 -22 -5 -30
0 -8 5 -21 5 -30 0 -9 -5 -22 -5 -30 0 -8 5 -21 5 -30 0 -9 -5 -22 -5 -30 0
-8 5 -21 5 -30 0 -9 -5 -22 -5 -30 0 -8 5 -21 5 -30 0 -9 -5 -22 -5 -30 0 -8
5 -21 5 -30 0 -9 -5 -22 -5 -30 0 -8 5 -21 5 -30 0 -9 -5 -22 -5 -30 0 -8 5
-21 5 -30 0 -9 -5 -22 -5 -30 0 -8 5 -21 5 -30 0 -9 -5 -22 -5 -30 0 -8 5 -21
5 -30 0 -9 -5 -22 -5 -30 0 -8 5 -21 5 -30 0 -9 -5 -22 -5 -30 0 -8 5 -21 5
-30 0 -9 -5 -22 -5 -30 0 -8 5 -21 5 -30 0 -9 -5 -22 -5 -30 0 -8 5 -21 5 -30
0 -9 -5 -22 -5 -30 0 -7 4 -24 4 -36 0 -14 -6 -26 -5 -29 0 -3 5 -18 5 -35 0
-17 -5 -30 -6 -30 -2 0 4 -19 7 -43 7 -43 -1 -148 22 -157 33 -3 4 -12 8 -20
10 -8 2 -39 18 -68 35 -140 84 -242 245 -256 403 -2 27 -5 54 -6 59 -1 6 -2
12 -1 15 1 3 4 39 6 80 3 70 8 107 20 170 3 14 7 35 9 46 5 25 49 161 69 214
7 19 28 64 47 100 19 36 37 69 39 75 6 15 84 127 111 160 61 75 223 224 291
269 41 27 87 58 102 68 16 11 35 21 41 22 7 1 24 9 37 17 47 31 268 105 338
113 20 3 36 5 36 6 0 5 52 10 144 15 58 3 107 8 110 10 2 3 9 1 14 -4 5 -5 21
-5 38 -1z"/>
</g>
</svg>
