<?xml version="1.0"?>
<svg width="496" height="496" xmlns="http://www.w3.org/2000/svg" xmlns:svg="http://www.w3.org/2000/svg">
 <!--! Font Awesome Pro 6.4.2 by @fontawesome - https://fontawesome.com License - https://fontawesome.com/license (Commercial License) Copyright 2023 Fonticons, Inc. -->
 <g class="layer">
  <title>Layer 1</title>
  <path d="m248,0c-136.97,0 -248,111.03 -248,248s111.03,248 248,248s248,-111.03 248,-248s-111.03,-248 -248,-248zm114.95,168.66c-3.73,39.22 -19.88,134.38 -28.1,178.3c-3.47,18.58 -10.32,24.82 -16.95,25.43c-14.4,1.32 -25.33,-9.52 -39.28,-18.67c-21.83,-14.3 -34.16,-23.21 -55.35,-37.17c-24.48,-16.14 -8.61,-25 5.34,-39.5c3.66,-3.8 67.11,-61.51 68.34,-66.75c0.15,-0.65 0.3,-3.1 -1.16,-4.38s-3.59,-0.85 -5.13,-0.5q-3.28,0.74 -104.61,69.14q-14.84,10.19 -26.89,9.93c-8.86,-0.19 -25.89,-5 -38.55,-9.12c-15.53,-5.05 -27.88,-7.72 -26.8,-16.29q0.84,-6.7 18.45,-13.7q108.44,-47.25 144.62,-62.3c68.88,-28.65 83.19,-33.62 92.51,-33.79c2.06,-0.03 6.64,0.47 9.61,2.89a10.45,10.45 0 0 1 3.53,6.71a43.77,43.77 0 0 1 0.42,9.77z" fill="#ffffff" id="svg_1"/>
 </g>
</svg>