<?xml version="1.0"?>
<svg width="448" height="448" xmlns="http://www.w3.org/2000/svg" xmlns:svg="http://www.w3.org/2000/svg">
 <!--! Font Awesome Pro 6.4.2 by @fontawesome - https://fontawesome.com License - https://fontawesome.com/license (Commercial License) Copyright 2023 Fonticons, Inc. -->
 <g class="layer">
  <title>Layer 1</title>
  <path d="m31.49,31.49c-31.49,31.49 -31.49,82.18 -31.49,183.55l0,17.92c0,101.37 0,152.06 31.49,183.55c31.49,31.49 82.18,31.49 183.55,31.49l17.92,0c101.37,0 152.06,0 183.55,-31.49c31.49,-31.49 31.49,-82.18 31.49,-183.55l0,-17.92c0,-101.37 0,-152.06 -31.49,-183.55c-31.49,-31.49 -82.18,-31.49 -183.55,-31.49l-17.92,0c-101.37,0 -152.06,0 -183.55,31.49zm44.11,104.78l51.15,0c1.68,85.49 39.38,121.7 69.25,129.17l0,-129.17l48.16,0l0,73.73c29.49,-3.17 60.48,-36.77 70.93,-73.73l48.16,0c-3.94,19.17 -11.79,37.31 -23.06,53.31c-11.28,15.99 -25.73,29.49 -42.46,39.65c18.68,9.27 35.18,22.4 48.4,38.52c13.23,16.12 22.88,34.87 28.32,55l-53.01,0c-4.88,-17.49 -14.83,-33.14 -28.57,-45c-13.75,-11.85 -30.7,-19.38 -48.71,-21.64l0,66.64l-5.79,0c-102.1,0 -160.34,-70 -162.77,-186.48z" fill="#ffffff" id="svg_1"/>
 </g>
</svg>